<svg style="height: 100%;" width="24" height="25" viewBox="0 0 24 25" fill="none" xmlns="http://www.w3.org/2000/svg">
            <path fill-rule="evenodd" clip-rule="evenodd" d="M22.2144 6.49887C21.4921 7.0056 20.6008 7.30486 19.6364 7.30486C17.2264 7.30486 15.2727 5.43613 15.2727 3.13094C15.2727 2.57907 15.3847 2.05222 15.5881 1.57003C14.4372 1.22506 13.2283 1.04492 12 1.04492C8.8174 1.04492 5.76516 2.25424 3.51472 4.40683C1.26428 6.55942 0 9.47896 0 12.5232C0 15.5674 1.26428 18.4869 3.51472 20.6395C5.76516 22.7921 8.8174 24.0014 12 24.0014C15.1826 24.0014 18.2348 22.7921 20.4853 20.6395C22.7357 18.4869 24 15.5674 24 12.5232C24 10.3783 23.3724 8.29532 22.2144 6.49887ZM15.0086 6.79403C15.0043 6.89 14.98 6.98419 14.937 7.07101L9.687 18.5493C9.64966 18.6384 9.59397 18.7195 9.52324 18.7877C9.45251 18.8559 9.36818 18.9099 9.27525 18.9463C9.18233 18.9827 9.0827 19.0009 8.98227 18.9999C8.88185 18.9988 8.78267 18.9784 8.69064 18.94C8.5986 18.9015 8.51557 18.8458 8.44648 18.7761C8.37738 18.7063 8.32363 18.6241 8.28841 18.5341C8.25319 18.4441 8.23722 18.3483 8.24144 18.2523C8.24567 18.1564 8.27 18.0622 8.313 17.9754L13.563 6.4971C13.6003 6.40792 13.656 6.32683 13.7268 6.25863C13.7975 6.19042 13.8818 6.13651 13.9747 6.10007C14.0677 6.06363 14.1673 6.04542 14.2677 6.04651C14.3682 6.0476 14.4673 6.06797 14.5594 6.10641C14.6514 6.14486 14.7344 6.20059 14.8035 6.27031C14.8726 6.34002 14.9264 6.42231 14.9616 6.51227C14.9968 6.60223 15.0128 6.69805 15.0086 6.79403ZM7.03745 8.98973C7.12857 9.02589 7.21133 9.0789 7.281 9.1457C7.35084 9.21234 7.40626 9.29151 7.44407 9.37866C7.48188 9.46582 7.50134 9.55926 7.50134 9.65362C7.50134 9.74798 7.48188 9.84141 7.44407 9.92857C7.40626 10.0157 7.35084 10.0949 7.281 10.1615L4.8105 12.5232L7.281 14.8848C7.42183 15.0195 7.50095 15.2022 7.50095 15.3927C7.50095 15.5833 7.42183 15.766 7.281 15.9007C7.14017 16.0354 6.94916 16.111 6.75 16.111C6.55084 16.111 6.35983 16.0354 6.219 15.9007L3.219 13.0311C3.14915 12.9645 3.09374 12.8853 3.05593 12.7981C3.01812 12.711 2.99866 12.6175 2.99866 12.5232C2.99866 12.4288 3.01812 12.3354 3.05593 12.2482C3.09374 12.1611 3.14915 12.0819 3.219 12.0153L6.219 9.1457C6.28867 9.0789 6.37143 9.02589 6.46255 8.98973C6.55367 8.95356 6.65135 8.93494 6.75 8.93494C6.84865 8.93494 6.94633 8.95356 7.03745 8.98973ZM19.1895 12.5232L16.719 10.1615C16.5782 10.0268 16.4991 9.84412 16.4991 9.65362C16.4991 9.46311 16.5782 9.28041 16.719 9.1457C16.8598 9.011 17.0508 8.93532 17.25 8.93532C17.4492 8.93532 17.6402 9.011 17.781 9.1457L20.781 12.0153C20.8508 12.0819 20.9063 12.1611 20.9441 12.2482C20.9819 12.3354 21.0013 12.4288 21.0013 12.5232C21.0013 12.6175 20.9819 12.711 20.9441 12.7981C20.9063 12.8853 20.8508 12.9645 20.781 13.0311L17.781 15.9007C17.6402 16.0354 17.4492 16.111 17.25 16.111C17.0508 16.111 16.8598 16.0354 16.719 15.9007C16.5782 15.766 16.4991 15.5833 16.4991 15.3927C16.4991 15.2022 16.5782 15.0195 16.719 14.8848L19.1895 12.5232Z" fill="#676A6C"></path>
            <ellipse cx="19.6364" class="navbar_status_indicator" cy="3.13043" rx="3.27273" ry="3.13043" fill="#1ab394"></ellipse>
</svg>